<svg width="47" height="57" viewBox="0 0 47 57" fill="none" xmlns="http://www.w3.org/2000/svg">
<path d="M21.2832 1.79204C21.6176 1.54721 22.2923 1.05158 22.6327 0.800781C23.206 1.2785 23.7792 1.75024 24.3584 2.22198C25.696 1.17101 27.3083 1.35613 28.4071 2.62804C29.5536 1.63678 30.8852 2.14435 32.0914 2.68775C33.3873 2.62804 34.7905 2.28767 35.7519 3.4103C36.8328 3.35058 38.4689 2.58027 38.9705 4.01938C39.2094 6.15119 38.8272 8.28896 38.3973 10.373C40.3081 10.5939 42.2071 10.8388 44.1179 11.0597C45.975 11.1254 47.229 13.1378 46.9663 14.8814C46.405 23.6773 45.0077 32.3956 44.2612 41.1796C43.7178 45.6104 43.3655 50.0651 42.5534 54.4601C40.4694 54.6631 38.3674 54.8542 36.2774 54.6273C25.3378 53.3076 14.3742 52.2327 3.43454 50.9489C2.24623 50.7697 1.22511 50.1009 0.168166 49.5874C-0.184149 43.1621 1.13554 36.8264 1.77448 30.4609C2.26414 23.6714 3.36885 16.9475 3.91225 10.164C4.15708 8.39047 5.75146 6.65279 7.66232 6.9215C11.8841 7.41116 16.1059 8.02622 20.3636 8.18147C20.5785 6.03773 20.9308 3.91787 21.2832 1.79204ZM24.4241 3.96564C23.7434 3.62527 23.0925 3.22518 22.4118 2.88481C22.2505 5.21964 21.7489 7.51864 21.5041 9.8475C18.5005 9.48325 15.455 9.35785 12.4813 8.83236C10.439 8.70696 8.38486 8.35464 6.33666 8.57559C5.25583 9.29813 5.48274 10.7372 5.14834 11.836C4.99308 13.4542 4.92143 15.0845 4.62286 16.6908C4.45566 18.2971 4.33623 19.9153 4.12126 21.5157C3.70326 23.4922 3.77491 25.5225 3.55994 27.5229C3.01057 30.8669 2.71797 34.2528 2.35371 37.6266C1.86405 39.7704 1.97154 41.9858 1.7506 44.1594C1.44008 45.1745 1.4162 46.2314 1.36245 47.2764C2.28802 49.3366 4.73631 48.2856 6.40234 49.0559C7.36972 49.1395 8.34306 49.247 9.3164 49.2052C11.6751 49.8919 14.1592 49.6829 16.5418 50.2144C20.1784 50.298 23.7434 51.0504 27.374 51.2475C31.9601 51.755 36.5879 52.6388 41.2277 52.2447C41.5681 50.9907 41.9742 49.7188 41.8786 48.3991C42.7684 42.0156 43.1744 35.5724 43.9806 29.1711C44.6135 25.2657 44.6912 21.2768 45.3301 17.3596C45.5212 15.604 46.2079 13.2691 44.2135 12.2958C42.6848 12.2779 41.1561 12.1764 39.6334 12.1226L39.5617 11.6867C38.7377 11.6927 37.9076 11.6986 37.0836 11.7046C37.0955 9.25036 37.2985 6.80207 37.4837 4.35378C36.7671 4.87927 35.9729 5.28533 35.0593 5.21964C34.7846 4.80761 34.2412 3.98356 33.9665 3.5775C33.3036 4.1209 32.6348 4.67027 31.978 5.21964C31.3868 4.56876 30.8076 3.90593 30.2463 3.22518C29.464 3.70887 28.6698 4.18061 27.8816 4.65236C27.3382 3.93578 26.7948 3.21921 26.2574 2.50264C25.6841 3.02813 25.2064 3.7447 24.4241 3.96564Z" fill="#04080C"/>
<path d="M24.4237 3.96495C25.2059 3.74401 25.6836 3.02744 26.2569 2.50195C26.7943 3.21853 27.3377 3.9351 27.8811 4.65167C28.6694 4.17993 29.4636 3.70818 30.2458 3.2245C30.8071 3.90524 31.3864 4.56807 31.9775 5.21896C32.6344 4.66958 33.3032 4.12021 33.966 3.57681C34.2407 3.98287 34.7841 4.80693 35.0588 5.21896C35.9724 5.28464 36.7666 4.87858 37.4832 4.3531C37.2981 6.80139 37.0951 9.24967 37.0831 11.7039C36.898 11.0172 36.7188 10.3305 36.5158 9.64976L36.486 9.36313C31.4401 9.48256 26.4599 10.4081 21.4141 10.4977L21.5036 9.84682C21.7485 7.51796 22.2501 5.21896 22.4113 2.88412C23.092 3.2245 23.7429 3.62458 24.4237 3.96495Z" fill="#FA996E"/>
<path d="M5.14917 11.8355C5.48357 10.7368 5.25666 9.29766 6.33749 8.57512C8.38569 8.35417 10.4399 8.70649 12.4821 8.83189C15.4559 9.35738 18.5013 9.48278 21.5049 9.84703L21.4154 10.4979C21.3736 10.8084 21.278 11.4295 21.2362 11.74C16.6442 11.3518 12.082 10.5755 7.47206 10.4382L7.44817 11.1369C6.62412 20.6076 5.23277 30.0305 4.46843 39.5012C5.28054 40.6596 6.97643 40.3133 8.20057 40.6119C18.8297 41.5553 29.4051 43.1676 40.0462 43.92C40.1119 43.6394 40.2433 43.0781 40.309 42.7974C40.6314 43.0183 41.2763 43.4662 41.5988 43.6931C41.6585 44.565 41.7182 45.4308 41.772 46.3026C39.6163 45.6219 37.3889 45.2099 35.1317 45.0665C30.1934 44.6784 25.2968 43.8185 20.3405 43.6394C18.7163 45.4547 17.1279 47.3058 15.432 49.0614C13.3957 48.954 11.3535 49.0196 9.31723 49.2048C8.34389 49.2466 7.37054 49.1391 6.40317 49.0555C4.73714 48.2852 2.28885 49.3361 1.36328 47.276C1.41702 46.231 1.44091 45.174 1.75143 44.1589C1.97237 41.9853 1.86488 39.7699 2.35454 37.6261C2.7188 34.2523 3.0114 30.8665 3.56077 27.5225C3.77574 25.522 3.70408 23.4918 4.12208 21.5152C4.33706 19.9149 4.45648 18.2966 4.62368 16.6903C4.92226 15.084 4.99391 13.4538 5.14917 11.8355Z" fill="white"/>
<path d="M16.1429 18.0217C18.5732 16.4751 22.3531 18.4635 21.9113 21.4851C22.1262 24.429 18.2269 26.531 15.9398 24.6082C13.6647 23.2228 13.6587 19.1861 16.1429 18.0217Z" fill="white"/>
<path d="M29.4414 29.0265C30.8805 28.9549 32.7615 28.5189 33.6095 30.0715C34.6067 32.5676 32.6302 34.9203 30.4386 35.8578C30.1042 33.5827 29.7579 31.3076 29.4414 29.0265Z" fill="white"/>
<path d="M19.8578 29.9414C21.058 30.2937 22.2702 30.5863 23.5003 30.7893C23.5541 32.9809 23.5959 35.1784 23.572 37.3758C22.0612 37.2863 20.5624 37.0653 19.1113 36.6354C19.3681 34.408 19.6846 32.1807 19.8578 29.9414Z" fill="white"/>
<path d="M24.7168 30.7957C25.9171 30.4971 27.1113 30.1568 28.2997 29.8164C28.6341 32.0438 29.0043 34.2651 29.3327 36.4925C27.8578 36.9105 26.3649 37.2568 24.8303 37.2747C24.7944 35.1131 24.7586 32.9574 24.7168 30.7957Z" fill="white"/>
<path d="M21.4137 10.4979C26.4596 10.4083 31.4397 9.48271 36.4856 9.36328L36.5155 9.64991C36.4498 10.892 36.4916 12.14 36.5035 13.3821C36.4976 13.7881 36.4856 14.5943 36.4796 15.0003L36.408 15.6452C33.9298 16.7977 31.2128 15.7348 28.6451 15.5079C26.0655 14.9705 23.0797 15.4243 20.9121 13.6508C20.9897 13.1731 21.151 12.2176 21.2346 11.7399C21.2764 11.4294 21.3719 10.8084 21.4137 10.4979Z" fill="#FBBB83"/>
<path d="M36.5165 9.65039C36.7196 10.3311 36.8987 11.0179 37.0838 11.7046C37.9079 11.6986 38.7379 11.6926 39.562 11.6866L39.6336 12.1226C41.1563 12.1763 42.685 12.2778 44.2137 12.2957C46.2082 13.2691 45.5215 15.6039 45.3304 17.3595C44.6914 21.2768 44.6138 25.2657 43.9808 29.171C43.1747 35.5724 42.7686 42.0156 41.8789 48.399C41.855 47.8795 41.8012 46.8285 41.7714 46.3031C41.7176 45.4312 41.6579 44.5654 41.5982 43.6935C41.2758 43.4666 40.6308 43.0188 40.3084 42.7978C41.2698 33.763 42.4282 24.7342 43.2404 15.6756C43.2165 15.3113 43.1687 14.5768 43.1448 14.2066C40.9234 14.0095 38.6961 13.8125 36.5046 13.3825C36.4926 12.1405 36.4508 10.8924 36.5165 9.65039Z" fill="#FEEFE6"/>
<path d="M7.47154 10.4395C12.0815 10.5768 16.6437 11.3531 21.2357 11.7412C21.1521 12.2189 20.9909 13.1744 20.9132 13.6521C23.0809 15.4256 26.0666 14.9718 28.6462 15.5092C31.214 15.7361 33.931 16.799 36.4091 15.6465C36.2061 16.1601 35.9911 16.6617 35.7523 17.1573C34.761 17.0857 33.7757 17.02 32.7844 16.9603C32.7008 17.8082 32.6232 18.6561 32.4321 19.4862C32.1276 18.9905 31.8051 18.5069 31.4528 18.0411L30.581 18.5188C30.6765 18.1784 30.8796 17.4977 30.9811 17.1573C28.497 16.8349 25.9233 16.6856 23.5944 15.6824C21.9762 14.9598 20.8655 13.246 19.0263 13.0191C16.5123 12.6967 13.9923 12.416 11.4664 12.207C9.99149 12.0577 8.72554 12.9534 7.4596 13.5446C7.44766 12.7385 7.44168 11.9383 7.44766 11.1381L7.47154 10.4395Z" fill="#805FCE"/>
<path d="M4.4668 39.501C5.23114 30.0303 6.62248 20.6074 7.44654 11.1367C7.44057 11.9369 7.44654 12.7371 7.45849 13.5432C8.72443 12.952 9.99037 12.0563 11.4653 12.2056C13.9912 12.4146 16.5112 12.6953 19.0252 13.0177C20.8644 13.2446 21.975 14.9584 23.5933 15.681C25.9222 16.6842 28.4958 16.8335 30.98 17.1559C30.8784 17.4963 30.6754 18.177 30.5799 18.5174C28.7765 19.6102 26.8836 20.5417 25.1638 21.7599C24.5248 22.1301 24.5368 22.9721 24.2382 23.5752C26.8895 23.6349 29.5468 23.8141 32.1922 23.6051C32.2698 23.193 32.4251 22.363 32.5027 21.951C31.2427 21.8913 29.9827 21.8316 28.7228 21.7539C29.935 21.0314 31.1651 20.3566 32.3952 19.6639L32.431 19.4848C32.6221 18.6548 32.6997 17.8068 32.7833 16.9589C33.7746 17.0186 34.7599 17.0843 35.7511 17.1559C35.99 16.6603 36.205 16.1587 36.408 15.6452L36.4797 15.0002C38.7488 15.0838 41 15.3287 43.2393 15.675C42.4272 24.7337 41.2687 33.7625 40.3073 42.7973C40.2417 43.0779 40.1103 43.6392 40.0446 43.9199C29.4035 43.1675 18.8281 41.5552 8.19894 40.6117C6.9748 40.3131 5.27891 40.6595 4.4668 39.501ZM16.2425 16.4334C14.248 17.2216 12.8089 19.3295 12.7969 21.4792C12.9582 24.5127 15.8901 27.2238 19.0013 26.5908C22.8648 26.0474 24.913 20.6552 21.993 17.8844C20.6852 16.0572 18.2369 16.0094 16.2425 16.4334ZM29.9947 27.7254C27.7852 28.424 25.5818 29.4332 23.1932 29.1466C20.518 29.2122 18.0339 27.0685 15.3647 28.0359C13.83 28.5076 13.0657 30.1259 12.8746 31.6068C13.0418 33.7505 14.4212 35.6972 16.2604 36.7661C19.467 38.7606 23.444 38.8203 27.0806 38.3784C30.5381 37.8708 34.3299 35.8585 35.2077 32.2099C35.8586 29.3197 32.7594 26.7042 29.9947 27.7254ZM36.5155 37.2259C34.6345 37.3274 33.1118 39.1248 33.5536 41.0058C35.357 43.1973 39.8237 41.2268 39.1011 38.3426C38.8384 37.202 37.4649 37.0886 36.5155 37.2259Z" fill="#9E8AFB"/>
<path d="M36.5044 13.3828C38.6959 13.8128 40.9232 14.0098 43.1446 14.2069C43.1685 14.5771 43.2162 15.3116 43.2401 15.6758C41.0008 15.3295 38.7496 15.0847 36.4805 15.0011C36.4864 14.595 36.4984 13.7889 36.5044 13.3828Z" fill="#7A58CC"/>
<path d="M16.2424 16.4342C18.2369 16.0102 20.6851 16.058 21.9929 17.8853C24.9129 20.656 22.8647 26.0482 19.0012 26.5916C15.8901 27.2246 12.9581 24.5136 12.7969 21.4801C12.8088 19.3303 14.2479 17.2224 16.2424 16.4342ZM16.1409 18.0226C13.6568 19.187 13.6627 23.2237 15.9379 24.6091C18.2249 26.5319 22.1243 24.43 21.9093 21.486C22.3512 18.4645 18.5713 16.476 16.1409 18.0226Z" fill="#3D4057"/>
<path d="M25.1639 21.7612C26.8836 20.543 28.7766 19.6115 30.5799 18.5187L31.4518 18.041C31.8041 18.5068 32.1265 18.9905 32.4311 19.4861L32.3953 19.6652C31.1651 20.3579 29.935 21.0327 28.7228 21.7552C29.9828 21.8329 31.2428 21.8926 32.5027 21.9523C32.4251 22.3643 32.2699 23.1944 32.1922 23.6064C29.5469 23.8154 26.8896 23.6362 24.2383 23.5765C24.5369 22.9734 24.5249 22.1314 25.1639 21.7612Z" fill="#1F2637"/>
<path d="M29.9951 27.7254C32.7599 26.7043 35.859 29.3198 35.2082 32.2099C34.3304 35.8585 30.5385 37.8709 27.081 38.3784C23.4444 38.8203 19.4675 38.7606 16.2608 36.7661C14.4216 35.6973 13.0422 33.7506 12.875 31.6068C13.0661 30.1259 13.8304 28.5076 15.3651 28.0359C18.0343 27.0685 20.5184 29.2123 23.1936 29.1466C25.5822 29.4332 27.7857 28.424 29.9951 27.7254ZM14.3977 30.9261C13.8065 33.4281 16.0458 35.13 17.891 36.2884C18.1955 34.0252 18.5598 31.774 18.8405 29.5049C17.3297 28.7465 14.7321 28.9256 14.3977 30.9261ZM29.4398 29.0272C29.7562 31.3082 30.1026 33.5834 30.437 35.8585C32.6285 34.921 34.605 32.5682 33.6078 30.0722C32.7599 28.5196 30.8789 28.9555 29.4398 29.0272ZM19.8556 29.9408C19.6824 32.1801 19.3659 34.4074 19.1092 36.6348C20.5602 37.0647 22.0591 37.2857 23.5698 37.3752C23.5937 35.1777 23.5519 32.9802 23.4982 30.7887C22.2681 30.5857 21.0559 30.2931 19.8556 29.9408ZM24.7164 30.7947C24.7582 32.9564 24.794 35.112 24.8298 37.2737C26.3645 37.2558 27.8573 36.9095 29.3323 36.4915C29.0038 34.2641 28.6336 32.0427 28.2992 29.8154C27.1109 30.1558 25.9166 30.4961 24.7164 30.7947Z" fill="#3A3E54"/>
<path d="M14.3974 30.9269C14.7318 28.9265 17.3294 28.7473 18.8402 29.5057C18.5595 31.7748 18.1953 34.0261 17.8907 36.2892C16.0455 35.1308 13.8063 33.4289 14.3974 30.9269Z" fill="#FFFFFE"/>
<path d="M36.5154 37.2259C37.4649 37.0885 38.8383 37.202 39.101 38.3425C39.8236 41.2267 35.3569 43.1973 33.5536 41.0058C33.1117 39.1248 34.6344 37.3274 36.5154 37.2259Z" fill="#C7B1F1"/>
<path d="M20.3397 43.6406C25.296 43.8198 30.1925 44.6797 35.1309 45.0678C37.3881 45.2111 39.6155 45.6231 41.7712 46.3039C41.801 46.8294 41.8548 47.8803 41.8786 48.3999C41.9742 49.7195 41.5681 50.9915 41.2278 52.2455C36.588 52.6396 31.9601 51.7558 27.374 51.2482C23.7434 51.0512 20.1784 50.2988 16.5418 50.2152C14.1592 49.6837 11.6751 49.8927 9.31641 49.206C11.3527 49.0209 13.3949 48.9552 15.4312 49.0627C17.127 47.3071 18.7154 45.4559 20.3397 43.6406Z" fill="#FBDBD1"/>
<path d="M0.167969 49.5879C1.22491 50.1014 2.24603 50.7702 3.43434 50.9494C14.374 52.2332 25.3376 53.3081 36.2772 54.6278C38.3672 54.8547 40.4692 54.6636 42.5532 54.4606C42.1889 55.1354 41.8187 55.8042 41.4425 56.4789C38.6359 56.6402 35.8234 56.5088 33.0527 56.0251C23.1878 54.9562 13.3111 53.9411 3.45226 52.8065C1.67874 52.7886 0.490426 51.1942 0.167969 49.5879Z" fill="#103972"/>
</svg>
