<svg width="32" height="32" viewBox="0 0 32 32" fill="none" xmlns="http://www.w3.org/2000/svg">
<g filter="url(#filter0_dii_4451_68904)">
<rect x="2" y="2" width="28" height="28" rx="6" fill="url(#paint0_linear_4451_68904)"/>
<path fill-rule="evenodd" clip-rule="evenodd" d="M16 9C17.1046 9 18 9.89543 18 11V15H22C23.1046 15 24 15.8954 24 17C24 18.1046 23.1046 19 22 19H18V23C18 24.1046 17.1046 25 16 25C14.8954 25 14 24.1046 14 23V19H10C8.89543 19 8 18.1046 8 17C8 15.8954 8.89543 15 10 15H14V11C14 9.89543 14.8954 9 16 9Z" fill="white"/>
<path d="M19 11C19 9.34315 17.6569 8 16 8C14.3431 8 13 9.34315 13 11V14H10C8.34315 14 7 15.3431 7 17C7 18.6569 8.34315 20 10 20H13V23C13 24.6569 14.3431 26 16 26C17.6569 26 19 24.6569 19 23V20H22C23.6569 20 25 18.6569 25 17C25 15.3431 23.6569 14 22 14H19V11Z" stroke="black" stroke-opacity="0.5" stroke-width="2" stroke-linecap="round" stroke-linejoin="round"/>
</g>
<defs>
<filter id="filter0_dii_4451_68904" x="0" y="0" width="32" height="32" filterUnits="userSpaceOnUse" color-interpolation-filters="sRGB">
<feFlood flood-opacity="0" result="BackgroundImageFix"/>
<feColorMatrix in="SourceAlpha" type="matrix" values="0 0 0 0 0 0 0 0 0 0 0 0 0 0 0 0 0 0 127 0" result="hardAlpha"/>
<feMorphology radius="2" operator="dilate" in="SourceAlpha" result="effect1_dropShadow_4451_68904"/>
<feOffset/>
<feComposite in2="hardAlpha" operator="out"/>
<feColorMatrix type="matrix" values="0 0 0 0 0 0 0 0 0 0 0 0 0 0 0 0 0 0 1 0"/>
<feBlend mode="normal" in2="BackgroundImageFix" result="effect1_dropShadow_4451_68904"/>
<feBlend mode="normal" in="SourceGraphic" in2="effect1_dropShadow_4451_68904" result="shape"/>
<feColorMatrix in="SourceAlpha" type="matrix" values="0 0 0 0 0 0 0 0 0 0 0 0 0 0 0 0 0 0 127 0" result="hardAlpha"/>
<feOffset dy="-4"/>
<feComposite in2="hardAlpha" operator="arithmetic" k2="-1" k3="1"/>
<feColorMatrix type="matrix" values="0 0 0 0 0 0 0 0 0 0 0 0 0 0 0 0 0 0 0.25 0"/>
<feBlend mode="overlay" in2="shape" result="effect2_innerShadow_4451_68904"/>
<feColorMatrix in="SourceAlpha" type="matrix" values="0 0 0 0 0 0 0 0 0 0 0 0 0 0 0 0 0 0 127 0" result="hardAlpha"/>
<feOffset dy="3"/>
<feGaussianBlur stdDeviation="0.5"/>
<feComposite in2="hardAlpha" operator="arithmetic" k2="-1" k3="1"/>
<feColorMatrix type="matrix" values="0 0 0 0 1 0 0 0 0 1 0 0 0 0 1 0 0 0 0.25 0"/>
<feBlend mode="overlay" in2="effect2_innerShadow_4451_68904" result="effect3_innerShadow_4451_68904"/>
</filter>
<linearGradient id="paint0_linear_4451_68904" x1="16" y1="2" x2="16" y2="30" gradientUnits="userSpaceOnUse">
<stop stop-color="#FFBF2A"/>
<stop offset="1" stop-color="#FF8848"/>
</linearGradient>
</defs>
</svg>
