<svg width="54" height="58" viewBox="0 0 54 58" fill="none" xmlns="http://www.w3.org/2000/svg">
<path d="M20.0936 0.122722C21.5382 -0.224707 21.4529 2.14025 22.7877 2.18901C23.1291 2.24386 23.7995 2.35967 24.1409 2.42063C24.2384 2.72539 24.4395 3.33491 24.5432 3.64577C23.0193 4.25529 21.7637 5.38291 21.5687 7.10177C21.3249 7.11396 20.8251 7.13225 20.5813 7.14444C20.3192 6.5532 20.0632 5.96196 19.8072 5.37072C18.9051 4.79167 16.9424 4.98672 16.9851 3.62139C18.5393 2.91434 19.6243 1.78063 20.0936 0.122722Z" fill="#FCD2FD"/>
<path d="M7.08303 6.42517C7.97903 5.13298 9.38703 4.69412 10.8621 5.25489C10.9718 7.47965 9.46627 9.4667 10.1489 11.7585C10.6548 12.2888 11.1607 12.8191 11.6666 13.3555C11.6118 13.7029 11.496 14.3977 11.4411 14.7513C11.0632 14.9402 10.3074 15.3181 9.92951 15.5071C9.34436 15.0987 8.75922 14.6842 8.18018 14.2758C7.28418 14.3307 6.39427 14.4221 5.51046 14.5501C4.27313 15.0438 3.42589 16.8176 1.91427 16.1105C0.353889 15.1292 1.43275 13.3798 2.29217 12.3376C2.06665 11.1124 2.21903 9.65565 1.26817 8.70479C0.683031 8.12574 -0.10935 6.79698 0.920745 6.23013C1.9996 5.05984 3.21865 6.63851 4.38894 6.82136C5.29713 6.76651 6.18703 6.59584 7.08303 6.42517Z" fill="#FCD2FD"/>
<path d="M16.2642 16.5983C20.1103 13.7884 23.5846 10.4482 27.7172 8.05273C27.9975 10.8809 28.3998 13.6908 28.7229 16.5129C25.1023 19.012 21.6768 21.7853 18.3 24.5952C15.7156 23.5529 13.1313 22.5289 10.5469 21.4988C12.0951 19.4874 14.3381 18.2074 16.2642 16.5983Z" fill="#FCD2FD"/>
<path d="M23.1204 7.74239C24.9734 6.12715 27.6187 5.12144 30.0141 6.12715C35.7193 8.33972 41.4 10.6254 47.0747 12.9112C49.3665 13.7523 51.0366 15.9161 51.2438 18.3603C52.1459 24.0167 52.8347 29.7035 53.7307 35.3599C54.2976 37.7919 53.2979 40.4251 51.3292 41.9367C46.6176 45.606 41.9181 49.2936 37.2004 52.9569C35.4328 54.371 33.0252 54.7976 30.904 53.9809C29.5692 55.3157 28.3806 56.9371 26.4972 57.5161C21.048 56.2971 15.5867 55.1512 10.1619 53.8407C8.35166 53.4993 7.96157 51.4696 7.44347 50.0068C6.20004 45.7279 4.7189 41.5222 3.52423 37.2372C2.5368 33.8971 6.23662 32.1172 7.94328 29.862C7.69947 26.2902 5.88309 21.9809 8.86366 19.0491C13.4473 15.0811 18.4149 11.5641 23.1204 7.74239ZM16.2633 16.5988C14.3372 18.2079 12.0941 19.4879 10.5459 21.4993L10.2839 21.3957C10.1802 25.3089 11.2652 29.1062 11.6675 32.9706C12.2648 36.4753 12.3136 40.1142 13.5997 43.4666C19.4755 46.3131 25.6865 48.4281 31.7269 50.8845C33.5677 52.0731 35.5364 50.7443 36.981 49.5679C41.2477 46.1302 45.6667 42.8692 49.909 39.395C51.4145 38.2612 51.8473 36.3047 51.0976 34.6041C50.3783 28.5942 49.4336 22.5965 48.501 16.6171C45.8069 14.3496 42.229 13.6913 39.1021 12.2285C35.2865 10.8875 31.6903 8.88829 27.7162 8.05324C23.5837 10.4487 20.1094 13.7889 16.2633 16.5988Z" fill="#110110"/>
<path d="M27.7109 8.05273C31.685 8.88778 35.2812 10.887 39.0968 12.228C42.2237 13.6908 45.8016 14.3491 48.4957 16.6165C45.954 18.1038 43.6256 19.908 41.285 21.6878C37.2134 19.6885 32.9163 18.2196 28.7167 16.5129C28.3936 13.6908 27.9913 10.8809 27.7109 8.05273Z" fill="#873BCA"/>
<path d="M10.2804 21.3945L10.5425 21.4981C13.1269 22.5282 15.7112 23.5522 18.2956 24.5945C19.0758 29.0441 19.5573 33.5423 20.4289 37.9797C18.1859 39.8509 15.8758 41.6368 13.5962 43.4654C12.3101 40.113 12.2613 36.4741 11.664 32.9694C11.2617 29.105 10.1768 25.3077 10.2804 21.3945Z" fill="#873BCA"/>
<path d="M43.2283 34.4883C45.7517 35.4452 48.2569 36.4631 50.7742 37.4567C50.8961 36.5058 50.9997 35.5549 51.0972 34.6041C51.8469 36.3047 51.4142 38.2612 49.9087 39.3949C45.6664 42.8692 41.2473 46.1302 36.9807 49.5679C35.5361 50.7443 33.5673 52.073 31.7266 50.8845C32.2203 50.8235 33.2016 50.7016 33.6953 50.6407C33.3052 48.0624 32.9151 45.4902 32.5677 42.9058C36.237 40.2605 39.9064 37.5725 43.2283 34.4883Z" fill="#873BCA"/>
<path d="M28.7197 16.5117C32.9194 18.2184 37.2165 19.6873 41.2881 21.6866C42.05 25.935 42.6047 30.2138 43.2264 34.4866C39.9045 37.5708 36.2352 40.2588 32.5658 42.9041C28.543 41.2035 24.447 39.6919 20.4302 37.9791C19.5586 33.5418 19.0771 29.0435 18.2969 24.594C21.6736 21.7841 25.0992 19.0108 28.7197 16.5117Z" fill="#E160FB"/>
<path d="M41.2891 21.6884C43.6296 19.9086 45.958 18.1044 48.4997 16.6172C49.4323 22.5966 50.3771 28.5943 51.0963 34.6042C50.9988 35.5551 50.8952 36.5059 50.7733 37.4568C48.2559 36.4633 45.7508 35.4454 43.2273 34.4884C42.6056 30.2157 42.051 25.9368 41.2891 21.6884Z" fill="#9D49FA"/>
<path d="M20.4343 37.9805C24.4511 39.6932 28.5471 41.2049 32.5699 42.9054C32.9174 45.4898 33.3075 48.062 33.6976 50.6403C33.2038 50.7012 32.2225 50.8231 31.7288 50.8841C25.6884 48.4277 19.4774 46.3127 13.6016 43.4662C15.8812 41.6376 18.1913 39.8517 20.4343 37.9805Z" fill="#9D49FA"/>
</svg>
