<svg width="40" height="40" viewBox="0 0 40 40" fill="none" xmlns="http://www.w3.org/2000/svg">
<path d="M12.8872 4.04324C15.8613 2.39848 19.3783 2.33658 22.6746 2.64608C25.5384 2.89368 28.0757 4.40137 30.4542 5.90023C32.4487 7.25318 33.8608 9.27376 35.2419 11.2103C37.7087 15.5168 38.0837 20.8711 36.7114 25.5976C36.0053 28.3433 34.2447 30.6601 32.3251 32.6807C29.8143 35.5148 26.0679 36.8898 22.423 37.5C22.3392 33.6445 22.2995 29.7847 22.4451 25.9292C23.9895 25.9071 25.5384 25.8452 27.0829 25.8452C27.63 24.1164 27.8771 22.3257 27.8595 20.5174C26.0503 20.4997 24.2455 20.482 22.4363 20.4422C22.3304 18.5366 22.0215 16.18 23.7821 14.8889C25.2516 14.3584 26.8578 14.5308 28.3978 14.4601C28.4464 12.8772 28.4464 11.2899 28.3537 9.70706C25.5737 8.83604 22.6172 9.05269 19.8857 9.99003C18.1295 10.8964 16.6689 12.5235 16.3026 14.5087C15.7245 16.432 15.8304 18.4526 15.7334 20.4334C14.5728 20.4732 13.4079 20.4953 12.2473 20.5395C12.1856 22.2992 12.1856 24.0678 12.2694 25.8319C13.4299 25.8673 14.5905 25.8894 15.751 25.9336C15.8657 29.6387 15.8569 33.3527 15.7554 37.0623C10.0013 35.9746 5.43411 31.3808 3.40867 26.0176C2.12899 21.9588 2.18636 17.4931 3.67344 13.505C5.47824 9.37545 8.71716 5.82507 12.8872 4.04324Z" fill="#2C64F6"/>
</svg>
