<svg width="35" height="35" viewBox="0 0 35 35" fill="none" xmlns="http://www.w3.org/2000/svg">
<path d="M1.79991 11.1137C4.81637 3.07392 14.6136 -1.62943 22.7572 1.12527C25.0881 1.80252 27.0908 3.2235 29.135 4.47412C27.9093 6.4477 26.0936 7.89776 24.4151 9.45585C21.7892 7.72741 18.5442 6.47679 15.3948 7.40748C12.1207 8.16368 9.54465 10.7605 8.24417 13.7853C7.26777 15.8004 7.52537 18.1064 7.71234 20.2628C5.87172 21.7045 4.01032 23.1172 2.14061 24.5132C1.6628 22.9801 0.919073 21.4926 0.889989 19.8556C0.827665 16.9264 0.61161 13.8725 1.79991 11.1137Z" fill="#DF7141"/>
<path d="M17.4951 14.608C23.0211 14.1925 28.6012 14.2175 34.1272 14.5997C34.0981 17.4791 34.4513 20.454 33.4624 23.2253C32.6522 25.872 30.8781 28.0533 29.1122 30.1266C27.471 28.5685 25.6969 27.1558 23.8729 25.818C25.0446 24.397 26.0999 22.8846 26.9683 21.2642C23.8729 20.5288 20.6736 20.9816 17.5284 20.8321C17.5408 18.7588 17.5574 16.6855 17.4951 14.608Z" fill="#5383EC"/>
<path d="M2.13867 24.5141C4.00838 23.1181 5.86978 21.7054 7.7104 20.2637C8.76574 22.0627 9.78785 23.9698 11.4747 25.2703C13.7973 27.0611 16.9177 27.9461 19.8136 27.2813C21.2263 26.9863 22.5642 26.4129 23.873 25.8188C25.697 27.1567 27.4711 28.5693 29.1123 30.1274C25.1028 33.3101 19.8303 34.7227 14.7696 33.8793C9.22694 33.2519 4.79781 29.2009 2.13867 24.5141Z" fill="#58A65C"/>
</svg>
