<svg width="49" height="48" viewBox="0 0 49 48" fill="none" xmlns="http://www.w3.org/2000/svg">
<path d="M15.351 3.96188C21.201 3.28188 27.1511 3.41187 33.0311 3.83187C36.2811 4.06187 38.581 7.23186 38.421 10.3819C38.761 19.7119 38.8711 29.0919 38.3411 38.4119C38.3711 41.7319 35.3311 44.3719 32.1211 44.3819C27.0411 44.5519 21.9411 44.5718 16.8711 44.3718C13.7211 44.2818 10.7811 41.7119 10.7811 38.4719C10.2711 29.1519 10.3511 19.8019 10.7011 10.4919C10.5411 7.57191 12.391 4.57188 15.351 3.96188ZM22.601 36.0819C19.731 38.5219 24.191 42.8419 26.551 40.0919C29.311 37.6719 25.051 33.4619 22.601 36.0819Z" fill="#61721B"/>
<path d="M4.2811 9.8917C5.9211 8.7917 7.77105 10.7017 7.48105 12.3817C7.55105 15.9417 7.72105 19.5317 7.35105 23.0817C6.96105 25.5717 2.82106 25.0017 3.11106 22.4917C2.99106 18.5917 2.63106 14.5817 3.36106 10.7517C3.59106 10.5317 4.0511 10.1017 4.2811 9.8917Z" fill="#61721B"/>
<path d="M43.3211 23.8018C44.3111 23.7218 46.031 24.1218 45.851 25.4718C46.121 29.4618 46.211 33.5118 45.811 37.5118C45.191 39.9618 41.251 38.9118 41.6911 36.4618C41.681 32.5218 41.1811 28.4618 42.0711 24.6118C42.3811 24.4118 43.0011 24.0018 43.3211 23.8018Z" fill="#61721B"/>
</svg>
