<svg width="41" height="40" viewBox="0 0 41 40" fill="none" xmlns="http://www.w3.org/2000/svg">
<path d="M16.89 8.14223C19.615 4.94223 24.1733 4.25056 28.14 4.7339C31.9817 5.09223 36.0233 6.72557 38.09 10.1589C41.5816 16.3172 39.24 25.7422 32.0983 28.0922C32.6233 29.8756 33.9817 32.1589 32.4317 33.8006C30.315 35.5506 27.2984 35.5589 24.715 35.2506C22.1984 34.8672 19.3233 34.2589 17.7233 32.1089C16.6317 30.1506 18.4816 28.2672 19.3566 26.6422C12.9316 22.9672 12.4983 13.5256 16.89 8.14223ZM20.8066 12.1672C18.7316 13.4172 19.4233 17.3839 22.165 17.0339C25.54 16.4922 24.1733 10.5089 20.8066 12.1672ZM28.4567 13.2089C26.39 14.7172 27.79 18.6756 30.5484 17.7422C33.49 16.4922 31.49 11.0922 28.4567 13.2089ZM24.6234 21.7589C26.3817 22.2756 27.9067 21.0339 29.3733 20.2672C29.115 19.9006 28.5816 19.1589 28.315 18.7839C27.4066 19.2756 26.4817 19.6839 25.54 20.0089C24.1483 19.9506 23.3233 18.6589 22.2817 17.9506C20.7567 19.6422 22.9567 21.5006 24.6234 21.7589Z" fill="#15B8AF"/>
<path d="M2.96497 12.6922C5.48997 9.10054 10.2316 8.53388 14.2816 8.37555C11.2233 14.3755 11.3316 22.4422 16.7233 27.1089C15.44 29.4256 15.3816 32.0589 16.6983 34.3756C13.815 34.5089 10.6399 35.2006 7.99823 33.7006C5.95656 32.5339 7.34824 30.0922 7.79824 28.4172C1.58157 26.3172 -0.460033 17.9172 2.96497 12.6922Z" fill="#15B8AF"/>
</svg>
