<svg width="49" height="48" viewBox="0 0 49 48" fill="none" xmlns="http://www.w3.org/2000/svg">
<path d="M8.20327 8.16502C17.7033 7.02502 27.3533 7.415 36.9133 7.705C39.7033 7.625 42.9933 8.31504 44.2833 11.115C45.4233 14.105 45.2033 17.405 45.3433 20.565C45.2633 25.565 45.6433 30.625 44.7433 35.575C44.2433 38.305 41.5933 40.155 38.9033 40.215C29.2133 40.715 19.4733 40.755 9.78329 40.175C6.88329 40.065 4.36327 37.645 4.14327 34.765C3.42327 28.035 3.58331 21.215 3.99331 14.465C4.01331 11.775 5.49327 8.95502 8.20327 8.16502ZM38.3133 14.955C34.0533 18.065 29.8133 21.385 24.9333 23.465C18.3733 21.725 13.3733 16.415 7.69332 12.875C6.33332 13.225 5.53329 14.625 6.78329 15.615C10.2633 18.745 14.2833 21.195 18.1833 23.775C14.2933 27.455 9.9733 30.895 7.2333 35.575C7.6533 35.915 8.49329 36.6051 8.91329 36.9451C13.0433 33.4351 16.2933 28.9551 20.6433 25.6351C23.2133 26.4851 25.9233 26.415 28.5233 25.655C32.6233 29.095 36.1033 33.155 39.8733 36.925C40.3633 36.595 41.3533 35.945 41.8433 35.625C39.0833 30.945 34.8133 27.455 30.8733 23.815C34.8233 21.035 39.0633 18.595 42.5733 15.2551C42.6433 14.8451 42.7933 14.025 42.8633 13.615C41.1633 12.205 39.6833 14.035 38.3133 14.955Z" fill="#61721B"/>
</svg>
